<svg width="722" height="217" viewBox="0 0 722 217" fill="none" xmlns="http://www.w3.org/2000/svg">
<path d="M255.717 59.9802C261.724 59.9802 267.073 61.1534 271.766 63.4996C276.552 65.8459 280.306 69.4592 283.028 74.3395C285.75 79.1259 287.111 85.3201 287.111 92.9221V136H269.514V95.1746C269.514 88.5111 267.918 83.537 264.727 80.2521C261.63 76.9673 257.266 75.3249 251.635 75.3249C247.505 75.3249 243.845 76.1696 240.654 77.8589C237.463 79.5483 234.976 82.0823 233.193 85.4609C231.504 88.7457 230.659 92.9221 230.659 97.9901V136H213.062V60.8249H229.814V81.0968L226.858 74.9026C229.486 70.1162 233.287 66.456 238.261 63.922C243.329 61.2941 249.148 59.9802 255.717 59.9802ZM344.906 136.985C336.554 136.985 329.233 135.343 322.945 132.058C316.751 128.68 311.918 124.081 308.445 118.262C305.066 112.443 303.377 105.827 303.377 98.4124C303.377 90.9043 305.02 84.2878 308.304 78.5628C311.683 72.744 316.282 68.1922 322.1 64.9074C328.013 61.6226 334.724 59.9802 342.232 59.9802C349.552 59.9802 356.075 61.5757 361.8 64.7666C367.525 67.9576 372.03 72.4625 375.314 78.2813C378.599 84.1001 380.242 90.9512 380.242 98.8348C380.242 99.5856 380.195 100.43 380.101 101.369C380.101 102.307 380.054 103.199 379.96 104.044H317.314V92.359H370.669L363.771 96.0192C363.864 91.702 362.973 87.9011 361.096 84.6163C359.219 81.3314 356.638 78.7505 353.353 76.8735C350.162 74.9965 346.455 74.0579 342.232 74.0579C337.914 74.0579 334.114 74.9965 330.829 76.8735C327.638 78.7505 325.104 81.3784 323.227 84.757C321.444 88.0418 320.552 91.9367 320.552 96.4416V99.2571C320.552 103.762 321.584 107.751 323.649 111.223C325.714 114.696 328.623 117.37 332.377 119.247C336.131 121.125 340.448 122.063 345.329 122.063C349.552 122.063 353.353 121.406 356.732 120.092C360.11 118.778 363.114 116.713 365.741 113.898L375.174 124.738C371.795 128.68 367.525 131.73 362.363 133.888C357.295 135.953 351.476 136.985 344.906 136.985ZM425.441 136.985C417.182 136.985 410.8 134.874 406.295 130.65C401.79 126.333 399.538 119.998 399.538 111.646V44.2131H417.135V111.223C417.135 114.79 418.027 117.558 419.81 119.529C421.687 121.5 424.268 122.485 427.553 122.485C431.494 122.485 434.779 121.453 437.407 119.388L442.334 131.917C440.27 133.607 437.736 134.874 434.732 135.718C431.729 136.563 428.632 136.985 425.441 136.985ZM387.15 75.4657V61.388H437.266V75.4657H387.15ZM472.047 136L444.455 60.8249H461.066L484.717 127.131H476.834L501.61 60.8249H516.392L540.465 127.131H532.722L557.077 60.8249H572.703L544.97 136H528.077L506.115 77.2958H511.324L488.94 136H472.047ZM584.802 136V60.8249H601.555V81.5191L599.584 75.4657C601.836 70.3977 605.356 66.5498 610.142 63.922C615.022 61.2941 621.076 59.9802 628.302 59.9802V76.7327C627.552 76.545 626.848 76.4512 626.191 76.4512C625.534 76.3573 624.877 76.3104 624.22 76.3104C617.556 76.3104 612.254 78.2813 608.312 82.223C604.37 86.0709 602.399 91.8428 602.399 99.5387V136H584.802ZM657.59 119.247L658.012 97.1454L697.289 60.8249H718.405L685.041 94.3299L675.75 102.073L657.59 119.247ZM643.23 136V31.5432H660.827V136H643.23ZM699.964 136L672.512 102.073L683.633 87.9949L721.362 136H699.964Z" fill="white"/>
<path d="M229.256 202.383L216.176 172.912H220.33L232.343 200.25H230.378L242.56 172.912H246.489L233.354 202.383H229.256ZM300.847 202.663C297.778 202.663 295.084 202.027 292.764 200.755C290.443 199.445 288.628 197.667 287.319 195.422C286.009 193.139 285.354 190.538 285.354 187.619C285.354 184.7 285.971 182.118 287.206 179.873C288.479 177.627 290.2 175.868 292.371 174.596C294.579 173.286 297.049 172.631 299.781 172.631C302.55 172.631 305.001 173.267 307.134 174.54C309.305 175.775 311.008 177.534 312.242 179.817C313.477 182.062 314.095 184.663 314.095 187.619C314.095 187.806 314.076 188.012 314.039 188.237C314.039 188.424 314.039 188.63 314.039 188.854H288.385V185.879H311.906L310.334 187.058C310.334 184.925 309.866 183.035 308.931 181.388C308.032 179.704 306.797 178.394 305.226 177.459C303.654 176.523 301.839 176.056 299.781 176.056C297.76 176.056 295.945 176.523 294.335 177.459C292.726 178.394 291.473 179.704 290.574 181.388C289.676 183.072 289.227 185 289.227 187.17V187.788C289.227 190.033 289.714 192.017 290.687 193.738C291.697 195.422 293.082 196.751 294.841 197.724C296.637 198.659 298.677 199.127 300.959 199.127C302.756 199.127 304.421 198.809 305.955 198.173C307.527 197.536 308.874 196.563 309.997 195.254L312.242 197.836C310.933 199.408 309.286 200.605 307.303 201.429C305.357 202.252 303.205 202.663 300.847 202.663ZM374.301 172.631C376.696 172.631 378.791 173.099 380.588 174.035C382.421 174.933 383.843 176.317 384.854 178.189C385.902 180.06 386.426 182.417 386.426 185.262V202.383H382.44V185.655C382.44 182.548 381.654 180.21 380.082 178.638C378.548 177.029 376.378 176.224 373.571 176.224C371.475 176.224 369.641 176.654 368.07 177.515C366.535 178.338 365.338 179.555 364.477 181.164C363.654 182.736 363.242 184.644 363.242 186.89V202.383H359.256V172.912H363.074V180.995L362.456 179.48C363.392 177.347 364.889 175.681 366.947 174.484C369.005 173.249 371.456 172.631 374.301 172.631ZM443.559 202.663C440.789 202.663 438.656 201.915 437.159 200.418C435.662 198.921 434.914 196.807 434.914 194.075V166.4H438.9V193.85C438.9 195.572 439.33 196.9 440.191 197.836C441.089 198.771 442.361 199.239 444.008 199.239C445.767 199.239 447.226 198.734 448.386 197.724L449.79 200.586C449.004 201.298 448.05 201.821 446.927 202.158C445.842 202.495 444.719 202.663 443.559 202.663ZM429.637 176.224V172.912H447.881V176.224H429.637ZM506.276 202.663C503.768 202.663 501.579 202.196 499.708 201.26C497.837 200.325 496.377 198.921 495.329 197.05C494.319 195.179 493.814 192.84 493.814 190.033V172.912H497.799V189.584C497.799 192.728 498.566 195.104 500.101 196.713C501.673 198.285 503.862 199.071 506.669 199.071C508.727 199.071 510.504 198.659 512.001 197.836C513.536 196.975 514.696 195.74 515.482 194.131C516.305 192.522 516.717 190.594 516.717 188.349V172.912H520.702V202.383H516.885V194.299L517.503 195.759C516.567 197.929 515.108 199.632 513.124 200.867C511.178 202.065 508.895 202.663 506.276 202.663ZM568.859 202.383V172.912H572.676V180.939L572.283 179.536C573.107 177.29 574.491 175.588 576.437 174.428C578.383 173.23 580.797 172.631 583.679 172.631V176.505C583.529 176.505 583.379 176.505 583.23 176.505C583.08 176.467 582.93 176.448 582.781 176.448C579.674 176.448 577.242 177.403 575.483 179.311C573.724 181.183 572.845 183.858 572.845 187.339V202.383H568.859ZM640.244 202.663C637.176 202.663 634.481 202.027 632.161 200.755C629.841 199.445 628.026 197.667 626.716 195.422C625.406 193.139 624.751 190.538 624.751 187.619C624.751 184.7 625.369 182.118 626.604 179.873C627.876 177.627 629.597 175.868 631.768 174.596C633.976 173.286 636.446 172.631 639.178 172.631C641.947 172.631 644.398 173.267 646.531 174.54C648.702 175.775 650.405 177.534 651.64 179.817C652.875 182.062 653.492 184.663 653.492 187.619C653.492 187.806 653.473 188.012 653.436 188.237C653.436 188.424 653.436 188.63 653.436 188.854H627.782V185.879H651.303L649.731 187.058C649.731 184.925 649.263 183.035 648.328 181.388C647.43 179.704 646.195 178.394 644.623 177.459C643.051 176.523 641.236 176.056 639.178 176.056C637.157 176.056 635.342 176.523 633.733 177.459C632.123 178.394 630.87 179.704 629.972 181.388C629.073 183.072 628.624 185 628.624 187.17V187.788C628.624 190.033 629.111 192.017 630.084 193.738C631.094 195.422 632.479 196.751 634.238 197.724C636.034 198.659 638.074 199.127 640.357 199.127C642.153 199.127 643.818 198.809 645.353 198.173C646.924 197.536 648.272 196.563 649.394 195.254L651.64 197.836C650.33 199.408 648.683 200.605 646.7 201.429C644.754 202.252 642.602 202.663 640.244 202.663ZM706.569 202.663C704.136 202.663 701.835 202.327 699.664 201.653C697.494 200.942 695.791 200.063 694.556 199.015L696.352 195.871C697.55 196.769 699.084 197.555 700.955 198.229C702.826 198.865 704.791 199.183 706.849 199.183C709.656 199.183 711.677 198.753 712.912 197.892C714.147 196.994 714.764 195.815 714.764 194.356C714.764 193.27 714.409 192.428 713.698 191.829C713.024 191.193 712.126 190.725 711.003 190.426C709.881 190.089 708.627 189.809 707.242 189.584C705.858 189.36 704.473 189.098 703.088 188.798C701.741 188.499 700.506 188.068 699.383 187.507C698.261 186.908 697.344 186.104 696.633 185.093C695.959 184.083 695.622 182.736 695.622 181.052C695.622 179.442 696.071 178.002 696.97 176.729C697.868 175.457 699.178 174.465 700.899 173.754C702.658 173.006 704.791 172.631 707.298 172.631C709.207 172.631 711.116 172.893 713.024 173.417C714.933 173.904 716.505 174.559 717.74 175.382L715.999 178.582C714.69 177.683 713.286 177.047 711.789 176.673C710.292 176.261 708.795 176.056 707.298 176.056C704.641 176.056 702.677 176.523 701.404 177.459C700.169 178.357 699.552 179.517 699.552 180.939C699.552 182.062 699.889 182.941 700.562 183.578C701.273 184.214 702.19 184.719 703.313 185.093C704.473 185.43 705.727 185.711 707.074 185.935C708.459 186.16 709.825 186.44 711.172 186.777C712.556 187.077 713.81 187.507 714.933 188.068C716.093 188.592 717.01 189.36 717.683 190.37C718.394 191.343 718.75 192.634 718.75 194.243C718.75 195.965 718.263 197.462 717.29 198.734C716.355 199.969 714.97 200.942 713.136 201.653C711.34 202.327 709.151 202.663 706.569 202.663Z" fill="white"/>
<path d="M44.063 109.335C45.1233 109.874 46.088 110.584 46.9186 111.435L67.5594 132.076C68.1446 132.663 68.84 133.129 69.6057 133.447C70.3714 133.765 71.1923 133.929 72.0214 133.929C72.8505 133.929 73.6714 133.765 74.4371 133.447C75.2028 133.129 75.8982 132.663 76.4834 132.076L138.72 69.8177C139.308 69.2325 139.774 68.5371 140.092 67.7714C140.41 67.0057 140.573 66.1848 140.573 65.3557C140.573 64.5266 140.41 63.7057 140.092 62.94C139.774 62.1743 139.308 61.4789 138.72 60.8937C126.704 49.3116 111.435 41.6777 94.9593 39.0144C78.4835 36.351 61.5873 38.7853 46.5334 45.9914C31.4795 53.1974 18.9868 64.831 10.7284 79.3343C2.46995 93.8375 -1.16003 110.518 0.324782 127.141C0.456754 128.319 0.918512 129.436 1.65687 130.364C2.39523 131.291 3.38029 131.991 4.49881 132.384C5.61734 132.776 6.8239 132.845 7.97989 132.583C9.13588 132.32 10.1944 131.737 11.0337 130.9L30.5405 111.393C32.2865 109.663 34.5366 108.532 36.9667 108.162C39.3967 107.792 41.8813 108.203 44.063 109.335Z" fill="white"/>
<path d="M80.1808 161.052C78.3093 162.915 75.8593 164.086 73.2338 164.372C70.6083 164.659 67.9635 164.043 65.7344 162.627C65.0727 162.199 64.4662 161.691 63.9287 161.115L43.1829 140.39C42.0018 139.21 40.4008 138.548 38.7314 138.548C37.0621 138.548 35.4611 139.21 34.2799 140.39L15.76 158.91C14.7019 159.958 14.0495 161.348 13.9188 162.832C13.7881 164.316 14.1875 165.798 15.046 167.015C26.3874 182.891 43.0246 194.196 61.9614 198.894C80.8982 203.593 100.89 201.375 118.337 192.641C135.784 183.908 149.54 169.232 157.127 151.256C164.714 133.281 165.633 113.187 159.72 94.594C159.4 93.5528 158.816 92.6122 158.024 91.8642C157.233 91.1161 156.26 90.5861 155.203 90.3259C154.145 90.0657 153.038 90.0842 151.99 90.3796C150.941 90.675 149.987 91.2372 149.221 92.0114L80.1808 161.052Z" fill="white"/>
</svg>
